<svg width="81" height="80" viewBox="0 0 81 80" fill="none" xmlns="http://www.w3.org/2000/svg">
<g clip-path="url(#clip0_1_7155)">
<path fill-rule="evenodd" clip-rule="evenodd" d="M19.5957 5.89803C25.886 2.04196 33.1202 0.000702618 40.4984 6.63206e-09C43.3396 -5.15034e-05 46.1729 0.299949 48.9511 0.895011V12.0037H40.9674C37.4155 12.0037 34.009 13.4144 31.4969 15.9254C28.9848 18.4364 27.5728 21.8423 27.5712 25.3942V77.8685C21.7883 75.8878 16.5355 72.6095 12.2153 68.2847C12.1213 68.1837 12.0291 68.089 11.9351 67.9943C10.5669 66.5981 9.30121 65.1048 8.14799 63.5262C3.80913 57.5587 1.20522 50.5074 0.62423 43.1521C0.0432408 35.7969 1.5078 28.4242 4.85595 21.8495C8.2041 15.2748 13.3054 9.7541 19.5957 5.89803ZM69.0681 12.0062C70.4352 13.4023 71.6988 14.8957 72.8494 16.475V16.4724C77.1894 22.4395 79.7943 29.4908 80.3756 36.8463C80.9569 44.2017 79.4926 51.5747 76.1442 58.1496C72.7958 64.7242 67.694 70.2451 61.4028 74.1003C55.1117 77.9556 47.8768 79.9955 40.4984 79.9949C37.6569 79.9949 34.8234 79.6957 32.0444 79.1031V67.9943H40.0282C41.787 67.9943 43.5286 67.6478 45.1535 66.975C46.7785 66.3021 48.255 65.3156 49.4986 64.0715C50.7423 62.8281 51.7288 61.3516 52.4018 59.7266C53.0748 58.1017 53.4212 56.3601 53.4212 54.6013V2.13208C59.206 4.11032 64.4605 7.388 68.7815 11.7133C68.8301 11.7623 68.8775 11.8111 68.9249 11.8599C68.9722 11.9086 69.0195 11.9573 69.0681 12.0062Z" fill="#648286"/>
</g>
<defs>
<clipPath id="clip0_1_7155">
<rect width="80" height="80" fill="white" transform="translate(0.5)"/>
</clipPath>
</defs>
</svg>
