<svg width="25" height="24" viewBox="0 0 25 24" fill="none" xmlns="http://www.w3.org/2000/svg">
<path d="M24.5 12C24.5 5.37258 19.1274 0 12.5 0C5.87258 0 0.5 5.37258 0.5 12C0.5 18.6274 5.87258 24 12.5 24C19.1274 24 24.5 18.6274 24.5 12Z" fill="white"/>
<path fill-rule="evenodd" clip-rule="evenodd" d="M21.4997 12.2088C21.4997 11.5571 21.4412 10.9304 21.3325 10.3287H12.6758V13.8842H17.6225C17.4094 15.0331 16.7618 16.0066 15.7884 16.6584V18.9646H18.7589C20.4969 17.3644 21.4997 15.0081 21.4997 12.2088Z" fill="#4285F4"/>
<path fill-rule="evenodd" clip-rule="evenodd" d="M12.6758 21.1916C15.1575 21.1916 17.2381 20.3685 18.7589 18.9647L15.7884 16.6585C14.9653 17.21 13.9125 17.5359 12.6758 17.5359C10.2818 17.5359 8.25551 15.919 7.53272 13.7465H4.46191V16.1279C5.97434 19.1319 9.08275 21.1916 12.6758 21.1916Z" fill="#34A853"/>
<path fill-rule="evenodd" clip-rule="evenodd" d="M7.53283 13.7463C7.349 13.1948 7.24455 12.6057 7.24455 11.9999C7.24455 11.3941 7.349 10.805 7.53283 10.2535V7.87207H4.46202C3.8395 9.11293 3.48438 10.5167 3.48438 11.9999C3.48438 13.4831 3.8395 14.8869 4.46202 16.1277L7.53283 13.7463Z" fill="#FBBC05"/>
<path fill-rule="evenodd" clip-rule="evenodd" d="M12.6758 6.46419C14.0253 6.46419 15.2369 6.92795 16.1895 7.83875L18.8258 5.20245C17.234 3.71927 15.1533 2.80847 12.6758 2.80847C9.08275 2.80847 5.97434 4.86821 4.46191 7.87217L7.53272 10.2536C8.25551 8.08107 10.2818 6.46419 12.6758 6.46419Z" fill="#EA4335"/>
</svg>
